HIERARCHY
ROOT ui
{
	 OFFSET 0 0 0
	 CHANNELS 3 XPosition YPosition Z Position
	 EndSite
	 {
	 OFFSET 0 -1 0
	 }
}
ROOT li
{
	 OFFSET 0 0 0
	 CHANNELS 3 XPosition YPosition Z Position
	 EndSite
	 {
	 OFFSET 0 -1 0
	 }
}
ROOT ul
{
	 OFFSET 0 0 0
	 CHANNELS 3 XPosition YPosition Z Position
	 EndSite
	 {
	 OFFSET 0 -1 0
	 }
}
ROOT ll
{
	 OFFSET 0 0 0
	 CHANNELS 3 XPosition YPosition Z Position
	 EndSite
	 {
	 OFFSET 0 -1 0
	 }
}
ROOT tt
{
	 OFFSET 0 0 0
	 CHANNELS 3 XPosition YPosition Z Position
	 EndSite
	 {
	 OFFSET 0 -1 0
	 }
}
ROOT tb
{
	 OFFSET 0 0 0
	 CHANNELS 3 XPosition YPosition Z Position
	 EndSite
	 {
	 OFFSET 0 -1 0
	 }
}
ROOT td
{
	 OFFSET 0 0 0
	 CHANNELS 3 XPosition YPosition Z Position
	 EndSite
	 {
	 OFFSET 0 -1 0
	 }
}
ROOT v
{
	 OFFSET 0 0 0
	 CHANNELS 3 XPosition YPosition Z Position
	 EndSite
	 {
	 OFFSET 0 -1 0
	 }
}
ROOT bn
{
	 OFFSET 0 0 0
	 CHANNELS 3 XPosition YPosition Z Position
	 EndSite
	 {
	 OFFSET 0 -1 0
	 }
}
MOTION
Frames: 30
Frame Time: 0.002
0.005498025894165039	0.0011219350099563599	0		0.4243587341308594	-2.44123779296875	0		-1.15048583984375	-0.11981694030761719	0		-0.8300929565429688	-2.3663984375	0		0.9357840576171875	-0.731195556640625	0		2.25260498046875	0.3885127868652344	0		4.2258359375	0.795541015625	0		5.2394443359375	0.3326119079589844	0		-0.47104345703125	5.800037109375	0		
-0.06223566436767578	-0.0066265549659729	0		0.4227207336425781	-2.442495361328125	0		-1.150149169921875	-0.11911806488037109	0		-0.7997880249023438	-2.374928466796875	0		0.9361315307617187	-0.7304600219726562	0		2.275885009765625	0.3830917053222656	0		4.22615625	0.7963221435546874	0		5.24740087890625	0.2940708312988281	0		-0.48389642333984373	5.78985009765625	0		
0.006189373970031739	0.002587717056274414	0		0.42512860107421874	-2.439758544921875	0		-1.2338349609375	-0.12373214721679687	0		-0.8274505004882813	-2.380974609375	0		0.942451904296875	-0.73574658203125	0		2.272197265625	0.37890277099609376	0		4.222501953125	0.7971512451171875	0		5.239822265625	0.2990975646972656	0		-0.5025922546386719	5.79473779296875	0		
0.011522781372070313	-0.0016808429956436158	0		0.4553474731445312	-2.462216796875	0		-1.147487060546875	-0.12664595794677735	0		-0.81611474609375	-2.388299072265625	0		0.9488869018554688	-0.7280130615234375	0		2.28973681640625	0.40156448364257813	0		4.239912109375	0.8038270874023438	0		5.2579306640625	0.3036471252441406	0		-0.4882052307128906	5.80539306640625	0		
0.014930561065673828	0.002086234092712402	0		0.42896771240234377	-2.4332138671875	0		-1.1530625	-0.12081669616699219	0		-0.7827539672851562	-2.39277099609375	0		0.9433232421875	-0.7211696166992188	0		2.276072265625	0.39647979736328126	0		4.236337890625	0.810672607421875	0		5.26026171875	0.27908432006835937	0		-0.5019377136230468	5.79628955078125	0		
0.012298096656799316	-8.304399996995926E-5	0		0.45432516479492185	-2.43760009765625	0		-1.148803955078125	-0.1370431365966797	0		-0.7884034423828125	-2.3979189453125	0		0.9406926879882812	-0.72333642578125	0		2.3134609375	0.3970047607421875	0		4.2356328125	0.7994971923828125	0		5.27054833984375	0.28723477172851564	0		-0.48160162353515623	5.79193994140625	0		
0.012686488151550292	7.372919917106629E-4	0		0.4267110290527344	-2.436562255859375	0		-1.148415771484375	-0.13622119140625	0		-0.7611048583984374	-2.4083076171875	0		0.96104052734375	-0.7276730346679687	0		2.27289794921875	0.40414114379882815	0		4.2360224609375	0.8003126831054688	0		5.27288134765625	0.2626522216796875	0		-0.4812052001953125	5.7927607421875	0		
0.013998014450073242	-0.006440511226654053	0		0.4548770751953125	-2.460951904296875	0		-1.1520657958984375	-0.13835438537597655	0		-0.8017728881835937	-2.411154296875	0		0.9474034423828125	-0.7277388916015625	0		2.26823486328125	0.399998779296875	0		4.240361328125	0.7960938720703125	0		5.28665380859375	0.24994833374023437	0		-0.4987862854003906	5.7957333984375	0		
0.021396360397338866	0.0013404250144958495	0		0.4701854248046875	-2.46223681640625	0		-1.2127054443359375	-0.13503338623046876	0		-0.7945341186523438	-2.4213662109375	0		0.9537882690429688	-0.72095751953125	0		2.309612060546875	0.40449655151367186	0		4.2407509765625	0.8019014282226562	0		5.3032978515625	0.24928407287597656	0		-0.4823342895507812	5.80444775390625	0		
0.018659868240356446	-0.0017971479892730713	0		0.4974388732910156	-2.46361328125	0		-1.1433751220703126	-0.12972138977050782	0		-0.8043494873046875	-2.431440673828125	0		0.9510523071289062	-0.7231044921875	0		2.309918701171875	0.40631234741210936	0		4.254107421875	0.8096030883789063	0		5.30628759765625	0.22810337829589844	0		-0.46399737548828124	5.8031513671875	0		
-0.059107337951660156	6.527069807052612E-4	0		0.46661929321289064	-2.464536376953125	0		-1.219143798828125	-0.12727422332763672	0		-0.7393829345703125	-2.460099609375	0		0.9452122802734375	-0.7292281494140626	0		2.256061279296875	0.3965492248535156	0		4.24628515625	0.8034660034179687	0		5.31923828125	0.21537437438964843	0		-0.47779571533203125	5.79310595703125	0		
0.01498702907562256	-0.0030882339477539063	0		0.48376617431640623	-2.4578369140625	0		-1.219017333984375	-0.1264224395751953	0		-0.786359375	-2.468884521484375	0		0.9453320922851562	-0.728400634765625	0		2.3062392578125	0.4029701232910156	0		4.2413828125	0.7993037719726562	0		5.32211474609375	0.19591140747070312	0		-0.3293566589355469	5.8247890625	0		
-0.06601128387451172	-0.0036182971000671385	0		0.4766376953125	-2.4719521484375	0		-1.2109569091796875	-0.11963808441162109	0		-0.7195844116210938	-2.495566650390625	0		0.94533935546875	-0.7275761108398437	0		2.292211669921875	0.39789031982421874	0		4.2373984375	0.7991323852539063	0		5.32212451171875	0.19726152038574218	0		-0.46245675659179686	5.80367138671875	0		
0.014891233444213867	-0.0014247690439224243	0		0.5045022888183593	-2.471347412109375	0		-1.1920220947265625	-0.112946533203125	0		-0.8217788696289062	-2.501928955078125	0		0.9482529907226562	-0.7227796630859376	0		2.324151123046875	0.40444589233398437	0		4.249302734375	0.8008331298828125	0		5.33483740234375	0.18452615356445312	0		-0.49654953002929686	5.79977197265625	0		
-0.05931760025024414	0.0039801568984985354	0		0.49530099487304685	-2.462458251953125	0		-1.1842109375	-0.10517591857910157	0		-0.71826708984375	-2.52991552734375	0		0.9480039672851562	-0.7219649047851563	0		2.296818603515625	0.39346115112304686	0		4.2490673828125	0.8016248168945312	0		5.3361181640625	0.19449371337890625	0		-0.47578848266601564	5.7944345703125	0		
0.014273836135864257	2.143930047750473E-4	0		0.5288028564453126	-2.474913330078125	0		-1.186515625	-0.09533463287353515	0		-0.7808494262695312	-2.552604736328125	0		0.9445919189453125	-0.725132568359375	0		2.332532470703125	0.4049750671386719	0		4.24573828125	0.8074358520507813	0		5.3486435546875	0.18174900817871092	0		-0.47611642456054687	5.7952548828125	0		
-0.07027234649658202	-0.004315242767333984	0		0.49035580444335936	-2.4648095703125	0		-1.187017822265625	-0.09451782989501953	0		-0.7166075439453125	-2.582302001953125	0		0.9440852661132813	-0.7243309936523438	0		2.28704296875	0.407121337890625	0		4.248203125	0.8031953735351562	0		5.3581796875	0.15521360778808593	0		-0.47756869506835936	5.79707470703125	0		
0.006101140975952149	-0.005122467041015625	0		0.4996538391113281	-2.47309130859375	0		-1.248514404296875	-0.07823070526123047	0		-0.7853314208984375	-2.592961669921875	0		0.9434647827148438	-0.7235369262695313	0		2.309381103515625	0.40172628784179687	0		4.247591796875	0.80397412109375	0		5.3727119140625	0.15452777099609374	0		-0.49711871337890623	5.8020263671875	0		
0.012443288803100586	0.0026125829219818117	0		0.5118988342285157	-2.476405517578125	0		-1.164182861328125	-0.07210590362548829	0		-0.7101993408203126	-2.610766845703125	0		0.9457804565429687	-0.7187741088867188	0		2.320701171875	0.4064124755859375	0		4.2519296875	0.8107103881835938	0		5.3807783203125	0.1608843688964844	0		-0.48075296020507813	5.8096845703125	0		
0.015678004264831544	0.0063626070022583005	0		0.5031929626464844	-2.464561767578125	0		-1.23793798828125	-0.06674629211425781	0		-0.7530306396484375	-2.61465234375	0		0.9419589233398438	-0.7219701538085938	0		2.324968017578125	0.4141506652832031	0		4.25114208984375	0.8114862670898437	0		5.3809404296875	0.16566802978515624	0		-0.4625643615722656	5.8063173828125	0		
0.007777231216430664	1.9092899560928345E-4	0		0.523271728515625	-2.473953369140625	0		-1.1787381591796875	-0.06044910049438477	0		-0.7299832763671875	-2.62806982421875	0		0.9380908203125	-0.7241719970703125	0		2.2880361328125	0.4042117919921875	0		4.2412001953125	0.8003363647460937	0		5.38167919921875	0.14104359436035158	0		-0.464411865234375	5.80809716796875	0		
0.0028672471046447753	-0.002014110088348389	0		0.5033371276855468	-2.481037109375	0		-1.256614013671875	-0.0580855712890625	0		-0.7061076049804688	-2.6595068359375	0		0.9322560424804688	-0.717364013671875	0		2.29613916015625	0.40391738891601564	0		4.2443564453125	0.8070884399414062	0		5.3967392578125	0.1421162109375	0		-0.3442568359375	5.81790380859375	0		
0.0019541950225830077	-0.0012613710165023805	0		0.5294332275390625	-2.48249169921875	0		-1.2446055908203124	-0.06744794464111328	0		-0.7360787963867188	-2.66953271484375	0		0.9313504028320313	-0.7166016845703125	0		2.318173828125	0.39851300048828125	0		4.25134033203125	0.7958153076171876	0		5.39743115234375	0.11753590393066406	0		-0.4993514709472656	5.80386572265625	0		
0.0050508551597595215	0.002448364019393921	0		0.5055992431640625	-2.47456201171875	0		-1.2764754638671876	-0.0594819107055664	0		-0.7280445556640625	-2.678873046875	0		0.9304342651367188	-0.7158464965820313	0		2.303383056640625	0.41739837646484373	0		4.23848828125	0.80770361328125	0		5.4032861328125	0.14824050903320313	0		-0.46632684326171875	5.80933251953125	0		
0.00715349006652832	0.007153660774230957	0		0.5306941528320313	-2.477027099609375	0		-1.2503253173828126	-0.04898971176147461	0		-0.73295263671875	-2.682126708984375	0		0.92044140625	-0.72502880859375	0		2.329351318359375	0.4059604187011719	0		4.2505517578125	0.8093988647460938	0		5.41048291015625	0.15298744201660155	0		-0.5014058227539062	5.80531884765625	0		
-8.206449747085572E-4	9.237030148506165E-4	0		0.5168643798828125	-2.4721982421875	0		-1.166363525390625	-0.06396797943115234	0		-0.7058961181640625	-2.6926474609375	0		0.922468505859375	-0.7333154907226562	0		2.32842236328125	0.40672988891601564	0		4.23652001953125	0.7982989501953125	0		5.41478369140625	0.14223294067382813	0		-0.34834088134765623	5.82081787109375	0		
-0.001721068024635315	0.0016223429441452027	0		0.5499285278320313	-2.48475	0		-1.261197021484375	-0.054568893432617185	0		-0.7487536010742187	-2.695640625	0		0.9075571899414062	-0.7364827270507812	0		2.309511474609375	0.4076317138671875	0		4.24364453125	0.8050307006835937	0		5.421271484375	0.14182301330566408	0		-0.48355816650390626	5.80155126953125	0		
0.01229788303375244	-0.011814181327819823	0		0.5251699829101563	-2.4788681640625	0		-1.2451220703125	-0.0610585823059082	0		-0.7056475830078125	-2.708324462890625	0		0.90963720703125	-0.7447992553710937	0		2.290628173828125	0.40851953125	0		4.2347021484375	0.7998778076171875	0		5.42560791015625	0.1310659942626953	0		-0.4836102905273437	5.801208984375	0		
0.0036260459423065185	0.009905126571655274	0		0.5264280395507812	-2.47620947265625	0		-1.241924072265625	-0.056470767974853515	0		-0.7743416137695313	-2.700163330078125	0		0.9227557373046875	-0.7532210693359375	0		2.33972509765625	0.40186257934570313	0		4.237888671875	0.8066148071289062	0		5.44156396484375	0.1771600341796875	0		-0.5235709228515625	5.80915283203125	0		
0.01578878116607666	0.0044390010833740235	0		0.5267312622070313	-2.47356689453125	0		-1.16572265625	-0.057469009399414066	0		-0.6981875	-2.718146240234375	0		0.9419578247070313	-0.7567120361328125	0		2.293015625	0.41492385864257814	0		4.250072265625	0.8072601928710937	0		5.43232421875	0.14064697265625	0		-0.5055685729980469	5.80662353515625	0		
